<mxfile host="app.diagrams.net" agent="Mozilla/5.0 (Windows NT 10.0; Win64; x64) AppleWebKit/537.36 (KHTML, like Gecko) Chrome/127.0.0.0 Safari/537.36" version="24.7.17">
  <diagram name="Page-1" id="o5plVuGJKDb5uaBIFbpW">
    <mxGraphModel dx="1050" dy="522" grid="1" gridSize="10" guides="1" tooltips="1" connect="1" arrows="1" fold="1" page="1" pageScale="1" pageWidth="850" pageHeight="1100" math="0" shadow="0">
      <root>
        <mxCell id="0" />
        <mxCell id="1" parent="0" />
        <mxCell id="PbhvG1lW3PXd5EZ6-Xhj-1" value="User" style="shape=umlActor;verticalLabelPosition=bottom;verticalAlign=top;html=1;outlineConnect=0;" vertex="1" parent="1">
          <mxGeometry x="60" y="183" width="30" height="60" as="geometry" />
        </mxCell>
        <mxCell id="PbhvG1lW3PXd5EZ6-Xhj-2" value="IT Staff" style="shape=umlActor;verticalLabelPosition=bottom;verticalAlign=top;html=1;outlineConnect=0;" vertex="1" parent="1">
          <mxGeometry x="740" y="180" width="30" height="60" as="geometry" />
        </mxCell>
        <mxCell id="PbhvG1lW3PXd5EZ6-Xhj-4" value="" style="rounded=1;whiteSpace=wrap;html=1;" vertex="1" parent="1">
          <mxGeometry x="260" y="20" width="310" height="530" as="geometry" />
        </mxCell>
        <mxCell id="PbhvG1lW3PXd5EZ6-Xhj-5" value="Pembuatan tiket request" style="ellipse;whiteSpace=wrap;html=1;fillColor=#ffe6cc;strokeColor=#d79b00;" vertex="1" parent="1">
          <mxGeometry x="355" y="50" width="120" height="80" as="geometry" />
        </mxCell>
        <mxCell id="PbhvG1lW3PXd5EZ6-Xhj-6" style="rounded=0;orthogonalLoop=1;jettySize=auto;html=1;exitX=0.5;exitY=0.5;exitDx=0;exitDy=0;exitPerimeter=0;entryX=0;entryY=0.5;entryDx=0;entryDy=0;" edge="1" parent="1" source="PbhvG1lW3PXd5EZ6-Xhj-1" target="PbhvG1lW3PXd5EZ6-Xhj-5">
          <mxGeometry relative="1" as="geometry" />
        </mxCell>
        <mxCell id="PbhvG1lW3PXd5EZ6-Xhj-8" value="Membaca dan mengkategorikan tiket" style="ellipse;whiteSpace=wrap;html=1;fillColor=#ffe6cc;strokeColor=#d79b00;" vertex="1" parent="1">
          <mxGeometry x="355" y="310" width="120" height="80" as="geometry" />
        </mxCell>
        <mxCell id="PbhvG1lW3PXd5EZ6-Xhj-7" style="rounded=0;orthogonalLoop=1;jettySize=auto;html=1;exitX=0.5;exitY=0.5;exitDx=0;exitDy=0;exitPerimeter=0;entryX=1;entryY=0.5;entryDx=0;entryDy=0;" edge="1" parent="1" source="PbhvG1lW3PXd5EZ6-Xhj-2" target="PbhvG1lW3PXd5EZ6-Xhj-8">
          <mxGeometry relative="1" as="geometry" />
        </mxCell>
        <mxCell id="PbhvG1lW3PXd5EZ6-Xhj-9" value="Pemberitahuan notifikasi" style="ellipse;whiteSpace=wrap;html=1;fillColor=#ffe6cc;strokeColor=#d79b00;" vertex="1" parent="1">
          <mxGeometry x="365" y="170" width="120" height="80" as="geometry" />
        </mxCell>
        <mxCell id="PbhvG1lW3PXd5EZ6-Xhj-10" style="rounded=0;orthogonalLoop=1;jettySize=auto;html=1;exitX=0.5;exitY=0.5;exitDx=0;exitDy=0;exitPerimeter=0;entryX=1;entryY=0.5;entryDx=0;entryDy=0;" edge="1" parent="1" source="PbhvG1lW3PXd5EZ6-Xhj-2" target="PbhvG1lW3PXd5EZ6-Xhj-9">
          <mxGeometry relative="1" as="geometry" />
        </mxCell>
        <mxCell id="PbhvG1lW3PXd5EZ6-Xhj-12" style="edgeStyle=none;rounded=0;orthogonalLoop=1;jettySize=auto;html=1;exitX=0.5;exitY=0.5;exitDx=0;exitDy=0;exitPerimeter=0;entryX=0;entryY=0.5;entryDx=0;entryDy=0;" edge="1" parent="1" source="PbhvG1lW3PXd5EZ6-Xhj-1" target="PbhvG1lW3PXd5EZ6-Xhj-9">
          <mxGeometry relative="1" as="geometry" />
        </mxCell>
      </root>
    </mxGraphModel>
  </diagram>
</mxfile>
